# xmcd
#
# Track frame offsets:
#	150
#	15085
#	30901
#	49417
#	75133
#	93263
#	115777
#	136607
#	160009
#	184975
#
# Disc length: 2790 seconds
#
# Revision: 0
# Processed by: cddbd v1.5.2PL0 Copyright (c) Steve Scherf et al.
# Submitted via: EZCDAudioConverter 4.0.5.1
#
DISCID=5f0ae40a
DTITLE=Will Pfrang - Live at the Yacht Club
DYEAR=2014
DGENRE=Pop
TTITLE0=Through the Dark
TTITLE1=A Day Before Thanksgiving
TTITLE2=My Kind of Madness
TTITLE3=More Than Words
TTITLE4=Hit or Miss
TTITLE5=Old Time Rhythm
TTITLE6=All Figured Out
TTITLE7=This Shining Light
TTITLE8=I'm Right Here
TTITLE9=Undone
EXTD=
EXTT0=
EXTT1=
EXTT2=
EXTT3=
EXTT4=
EXTT5=
EXTT6=
EXTT7=
EXTT8=
EXTT9=
PLAYORDER=
